# xmcd
#
# Track frame offsets:
#	150
#	18710
#	41935
#	59448
#	78458
#	96568
#	125323
#	141193
#	164815
#	195215
#	219245
#
# Disc length: 3758 seconds
#
# Revision: 1
# Processed by: cddbd v1.4PL0 Copyright (c) Steve Scherf et al.
# Submitted via: audiograbber 1.80.04
#
DISCID=a10eac0b
DTITLE=The Sid Hillman Quartet - Volume Two
DYEAR=2002
DGENRE=Country
TTITLE0=Silver's More Pretty Than Gold
TTITLE1=This Storm
TTITLE2=Dream Your Life Away
TTITLE3=The Whole Time
TTITLE4=Finally
TTITLE5=I'll Wait
TTITLE6=No Perfect World
TTITLE7=Winter
TTITLE8=Our July
TTITLE9=Stapled Down Upholstery
TTITLE10=Blind
EXTD=Interstate Records
EXTT0=
EXTT1=
EXTT2=
EXTT3=
EXTT4=
EXTT5=
EXTT6=
EXTT7=
EXTT8=
EXTT9=
EXTT10=
PLAYORDER=
